<?xml version="1.0" encoding="UTF-8" standalone="no"?>
<!-- Created with Inkscape (http://www.inkscape.org/) -->

<svg
   width="187.14703"
   height="196.01041"
   viewBox="0 0 49.515984 51.861086"
   version="1.1"
   id="svg5"
   xmlns="http://www.w3.org/2000/svg"
   xmlns:svg="http://www.w3.org/2000/svg">
  <defs
     id="defs2" />
  <g
     id="layer1"
     transform="translate(-1.6859469,-0.45957167)">
    <g
       id="g25750"
       transform="matrix(2.0333309,0,0,1.8238033,-26.299805,-1.598359)">
      <path
         id="path23276"
         style="opacity:1;fill:#c83737;fill-opacity:1;stroke:none;stroke-width:0.128042;stroke-dashoffset:2.64567"
         d="m 25.934334,13.157336 c -6.624258,0.0037 -12.031012,4.990605 -12.170833,11.225672 0.0028,2.14991 1.253085,4.902544 3.761248,4.869812 l 17.484674,-0.228177 c 2.225506,-0.02904 3.174165,-2.632117 3.102463,-4.641635 C 37.972009,18.145483 32.561205,13.157623 25.934334,13.157336 Z" />
      <g
         id="g23222"
         transform="translate(0.18113552)">
        <ellipse
           style="fill:#c83737;stroke:none;stroke-width:0.17372;stroke-dashoffset:2.64567"
           id="path184"
           cx="25.758442"
           cy="10.315948"
           rx="6.7712908"
           ry="9.1875744" />
        <path
           id="ellipse344"
           style="opacity:0.26896;mix-blend-mode:multiply;fill:#333333;fill-opacity:1;stroke-width:0.148913;stroke-dashoffset:2.64567"
           d="m 32.004674,12.194893 a 6.2462316,7.3183904 0 0 1 -6.246232,7.318391 6.2462316,7.3183904 0 0 1 -6.246232,-7.318391 6.2462316,7.3183904 0 0 1 6.246232,-7.3183896 6.2462316,7.3183904 0 0 1 6.246232,7.3183896 z" />
        <path
           id="rect19224"
           style="opacity:1;fill:#d08654;fill-opacity:1;stroke:none;stroke-width:0.151462;stroke-dashoffset:2.64567"
           d="m 24.382491,16.617074 c -0.07401,0 -0.133325,0.05932 -0.133325,0.133325 v 2.541447 a 6.2462316,7.3183904 0 0 0 1.509468,0.221692 6.2462316,7.3183904 0 0 0 1.793689,-0.308509 v -2.45463 c 0,-0.07401 -0.05984,-0.133325 -0.133842,-0.133325 z" />
        <path
           id="path457"
           style="fill:#deaa87;stroke-width:0.119083;stroke-dashoffset:2.64567"
           d="m 30.513765,12.148276 c 0,3.395089 -3.2725,5.619994 -4.755323,5.618186 -1.836128,0.03075 -4.755323,-2.223097 -4.755323,-5.618186 10e-7,-3.3950886 2.129031,-6.6765176 4.755323,-6.6765176 2.626292,0 4.755322,3.281429 4.755323,6.6765176 z" />
        <path
           id="path4644"
           style="mix-blend-mode:normal;fill:#333333;fill-opacity:1;stroke-width:0.148913;stroke-dashoffset:2.64567"
           d="m 30.628097,12.602274 c -1.652586,-0.710927 -3.173454,-3.8601266 -3.173454,-3.8601266 0,0 -3.739835,0.0136 -6.425947,3.8127846 0.581782,2.700997 -1.413428,-1.883648 -1.222476,-2.5853836 0.803754,-2.953734 3.164758,-5.093045 5.952222,-5.093045 2.290871,0 4.293696,1.444963 5.380771,3.599439 0.643631,1.431681 0.432838,3.2035186 -0.511116,4.1263316 z" />
      </g>
      <path
         id="rect25580"
         style="opacity:1;fill:#b3b3b3;stroke-width:0.177587;stroke-dashoffset:2.64567"
         d="m 18.070522,20.593884 h 15.73811 c 0.46698,0 0.910067,0.380796 0.842925,0.842924 l -1.058333,7.284322 c -0.06714,0.462128 -0.375945,0.842924 -0.842925,0.842924 H 19.128855 c -0.466981,0 -0.775782,-0.380796 -0.842925,-0.842924 l -1.058333,-7.284322 c -0.06714,-0.462128 0.375944,-0.842924 0.842925,-0.842924 z" />
      <ellipse
         style="opacity:1;fill:#ffffff;fill-opacity:1;stroke:none;stroke-width:0.165;stroke-dashoffset:2.64567"
         id="path25687"
         cx="25.939577"
         cy="25.906609"
         rx="1.8056792"
         ry="1.1721672" />
    </g>
  </g>
</svg>
