<?xml version="1.0" encoding="UTF-8" standalone="no"?>
<!-- Created with Inkscape (http://www.inkscape.org/) -->

<svg
   width="572.95374"
   height="558.79968"
   viewBox="0 0 151.59401 147.84908"
   version="1.1"
   id="svg4259"
   sodipodi:docname="logo-sd.svg"
   inkscape:version="1.2 (dc2aedaf03, 2022-05-15)"
   xmlns:inkscape="http://www.inkscape.org/namespaces/inkscape"
   xmlns:sodipodi="http://sodipodi.sourceforge.net/DTD/sodipodi-0.dtd"
   xmlns="http://www.w3.org/2000/svg"
   xmlns:svg="http://www.w3.org/2000/svg">
  <sodipodi:namedview
     id="namedview655"
     pagecolor="#ffffff"
     bordercolor="#666666"
     borderopacity="1.0"
     inkscape:showpageshadow="2"
     inkscape:pageopacity="0.0"
     inkscape:pagecheckerboard="0"
     inkscape:deskcolor="#d1d1d1"
     showgrid="false"
     inkscape:zoom="0.98783163"
     inkscape:cx="510.20841"
     inkscape:cy="279.906"
     inkscape:window-width="1366"
     inkscape:window-height="699"
     inkscape:window-x="0"
     inkscape:window-y="32"
     inkscape:window-maximized="1"
     inkscape:current-layer="svg4259" />
  <defs
     id="defs4256" />
  <path
     style="fill:#9e1515;stroke:none;stroke-width:3.018;stroke-dasharray:none;fill-opacity:1"
     id="path380"
     d="m 121.57103,142.2925 c -7.40052,5.38027 -84.091986,5.40384 -91.495806,0.0282 C 22.671404,136.94492 -1.0499865,64.01428 1.7747144,55.311643 4.5994152,46.609005 66.630263,1.5118144 75.779844,1.5090024 c 9.14958,-0.00278 71.208136,45.0562306 74.038186,53.7571296 2.83005,8.7009 -20.84649,81.646118 -28.247,87.026368 z" />
  <g
     id="g2501"
     style="stroke:#ffffff"
     transform="translate(35.432458,34.492521)">
    <path
       fill="none"
       stroke="#000000"
       stroke-width="1.12029"
       stroke-miterlimit="10"
       d="M 76.426004,66.299639"
       id="path8111"
       style="stroke:#ffffff" />
    <path
       fill="#ffffff"
       stroke="#000000"
       stroke-width="0.746862"
       stroke-miterlimit="10"
       d="m 7.6811655,33.601681 c 0,0 0.3084455,-0.629241 0.2020266,-0.411901 -0.906325,1.846241 -5.2399882,10.670034 -5.8094705,11.705191 -1.0269284,1.867144 0,4.107728 0,4.107728 l 2.1472344,2.800737 c 0,0 -0.187094,3.734682 1.6804308,5.601459 1.0093848,1.008637 -0.4667894,1.225229 2.1472345,5.13467 0,0 1.1202919,2.987436 2.9874357,4.667881 1.987027,1.78836 2.614024,4.294455 7.375254,5.321383 4.197732,0.905577 12.836689,-1.727119 14.003656,-2.894086 1.166967,-1.166967 6.773663,4.572287 8.402182,3.921029 2.800737,-1.120292 4.767596,-3.827666 7.842044,-3.827666 1.773794,0 2.707373,2.053871 12.043149,2.894087 4.277264,0.384999 7.704983,-3.050186 8.868972,-4.854608 1.867157,-2.894086 2.864588,-3.804504 3.454239,-5.508096 0.873072,-2.52289 2.053857,-3.110679 2.053857,-4.854594 0,-1.867158 0.796165,-1.829445 1.867158,-5.601459 0.754699,-2.658455 1.493717,-1.773795 2.14722,-5.9749 0.442146,-2.841808 -5.952106,-11.721606 -6.068235,-12.976714 -0.127731,-1.380566 -0.78383,5.520432 0.653502,8.682273 1.400355,3.0808 0.653503,1.960508 0.653503,3.0808 0,1.924658 -5.13467,2.52066 -5.13467,2.053871 0,-0.46679 -8.495546,-2.98745 -9.335776,-3.827666 -0.840215,-0.840229 -4.453899,-1.236054 -5.788172,-0.653502 -0.574705,0.250945 -1.773795,1.146798 -1.773795,1.773794 0,1.400355 0,0 0.186713,3.267512 0.160207,2.804096 -0.09329,5.881537 -0.09329,6.348326 0,0.46679 -1.913832,2.380622 -2.333947,1.960507 -0.420115,-0.420114 0.373426,-3.547588 -0.186713,-5.974885 -0.560153,-2.427297 -1.213656,-2.98745 -1.213656,-2.98745 l 4.107742,-23.61948 c 0,0 1.132995,-2.059474 2.427297,-2.240584 1.919803,-0.268503 3.405687,0.511587 2.894086,0 -1.517246,-1.51726 -5.13467,-3.547603 -5.694809,-2.98745 -0.560153,0.560139 -1.913832,-0.14001 -2.707373,0.653503 -0.793541,0.793541 -0.84023,-1.400369 -0.84023,-1.400369 l -4.014378,-3.827665 -0.466789,2.053871 c 0,0 -3.959857,-3.360876 -3.959857,-4.107742 0,-0.746852 -3.415397,4.574532 -4.348962,3.640953 C 35.1224,13.80686 35.869252,13.34007 35.869252,13.34007 c 0,0 -4.014378,3.547603 -4.481168,3.547603 -0.466789,0 -0.280062,1.680431 -0.280062,1.680431 0,0 -3.034125,-1.166967 -3.640953,-0.560139 -0.606827,0.606814 -4.947957,2.707373 -4.947957,3.267512 0,0.560153 1.773795,-0.280076 3.547589,0.186713 0.451476,0.118698 1.960507,1.400369 1.960507,3.640952 0,2.240584 4.481168,21.192183 4.481168,21.192183 0,0 -1.867144,5.508111 -1.307005,7.468618 0.560153,1.960507 -0.186713,2.14722 -0.186713,2.14722 0,0 -3.827665,-2.614009 -3.360876,-4.29444 0.46679,-1.680445 0.419367,-7.085482 0,-8.682273 -0.189705,-0.72259 -3.360875,-1.126262 -5.881536,-0.609806 -2.520646,0.516456 -7.795354,2.430289 -8.588895,3.22383 -0.793541,0.79354 -5.9748998,1.773794 -5.9748998,0.09329 0,-1.680431 0.4727738,-12.040143 0.4727738,-12.040143 z"
       id="path8115"
       style="fill:#297bbf;fill-opacity:1;stroke:#ffffff" />
    <path
       fill="none"
       stroke="#000000"
       stroke-width="0.758475"
       stroke-miterlimit="10"
       d="m 21.772568,42.4785 c 0,0 2.894086,1.444051 2.894086,2.888102 0,0.710268 0.288658,0.946648 0.09442,2.265608 -0.200911,1.362656 -0.519067,3.431078 -0.981383,3.907959 -0.308826,0.318537 -0.91564,1.492222 -1.089664,2.411235 -0.338706,1.789475 -0.450728,4.027829 -0.450728,4.027829 0,0 -0.133659,1.209915 -0.107972,2.411616 0.02018,0.92871 0.481355,1.495581 0.481355,2.209957 0,0.50189 0.633334,1.740937 1.339496,2.742107 0.896981,1.271904 2.993053,2.54193 3.515098,2.54193 0.408541,0 0.659854,0.380159 1.770435,0.79467 1.428371,0.533252 3.043087,0.75731 3.831025,0.75731"
       id="path8117"
       style="stroke:#ffffff" />
    <path
       fill="none"
       stroke="#000000"
       stroke-width="0.758475"
       stroke-miterlimit="10"
       d="m 58.666014,42.4785 c 0,0 -2.894086,1.444051 -2.894086,2.888102 0,0.710268 -0.288658,0.946648 -0.09442,2.265608 0.200912,1.362656 0.519067,3.431078 0.981383,3.907959 0.308826,0.318537 0.915654,1.492222 1.089665,2.411235 0.338705,1.789475 0.450727,4.027829 0.450727,4.027829 0,0 0.133659,1.209915 0.107972,2.411616 -0.02018,0.92871 -0.481355,1.495581 -0.481355,2.210324 0,0.50189 -0.633334,1.740937 -1.339495,2.74174 -0.896982,1.271904 -2.993053,2.54193 -3.515099,2.54193 -0.408541,0 -0.659854,0.380159 -1.770435,0.795037 -1.428371,0.533266 -3.043087,1.130384 -3.831024,1.130384"
       id="path8119"
       style="stroke:#ffffff" />
    <path
       fill="none"
       stroke="#000000"
       stroke-width="0.746862"
       stroke-miterlimit="10"
       d="m 43.354238,35.559196 c -1.789856,3.267526 -2.987435,6.758349 -2.987435,6.758349 0,0 -1.229717,-3.770899 -2.98745,-6.758349 -0.836856,-1.422019 2.98745,-6.254962 2.98745,-6.254962 0,0 3.780228,4.807919 2.987435,6.254962 z"
       id="path8121"
       style="stroke:#ffffff" />
    <path
       fill="none"
       stroke="#000000"
       stroke-width="0.706679"
       stroke-miterlimit="10"
       d="m 37.682209,42.4785 v 3.443766 c 0,0 -3.428848,4.387819 -5.766889,7.842044 -0.777493,1.148675 0.327867,-5.776599 1.170326,-7.468603 0.665824,-1.337633 3.890769,-4.605526 4.596563,-3.817207 z"
       id="path8123"
       style="stroke:#ffffff" />
    <path
       fill="none"
       stroke="#000000"
       stroke-width="0.746862"
       stroke-miterlimit="10"
       d="m 43.463282,42.4785 v 3.443766 c 0,0 3.220838,4.872533 6.441676,7.842044 0,0 -0.457447,-5.773974 -1.307005,-7.468603 C 47.881347,44.86584 44.251968,41.690181 43.463282,42.4785 Z"
       id="path8125"
       style="stroke:#ffffff" />
    <path
       fill="#fad407"
       stroke="#000000"
       stroke-width="0.746862"
       stroke-miterlimit="10"
       d="m 38.576947,63.659857 c 0,0 2.312282,-1.328669 3.640952,0 0.460805,0.460806 2.570694,-1.422033 3.360876,-3.454239 0.653502,-1.680431 0.3779,-3.441537 0,-4.248147 -1.026943,-2.193528 -5.055139,-10.218925 -5.211972,-11.716016 -0.129566,-1.236055 -1.41643,4.761244 -1.41643,4.761244 l -0.46679,-1.120292 c 0,0 -0.290521,0.808854 -1.223733,2.800737 -0.814824,1.739441 -1.269292,2.271945 -1.57699,3.080799 -0.681885,1.794711 -1.026561,2.777209 -1.26033,3.734302 -0.253556,1.03702 -0.419367,2.706625 1.019462,4.146202 0.658739,0.659106 3.134955,2.01541 3.134955,2.01541 z"
       id="path8127"
       style="stroke:#ffffff" />
    <path
       fill="none"
       stroke="#000000"
       stroke-width="0.746862"
       stroke-miterlimit="10"
       d="m 38.950373,49.376139 c 1.504176,2.181206 1.869769,2.715954 2.333947,4.387804 0.466789,1.680431 -0.216973,4.148813 -0.922754,4.854594"
       id="path8129"
       style="stroke:#ffffff" />
    <path
       fill="none"
       stroke="#000000"
       stroke-width="0.746862"
       stroke-miterlimit="10"
       d="m 38.993688,64.809647 c 0.86524,-0.486958 2.007196,-0.396953 2.98745,0 0.151245,0.06126 0,2.61401 0,2.61401 0,0 0.921625,1.289828 1.097145,1.890686 0.196042,0.672175 -2.544188,2.473971 -2.544188,2.473971 0,0 -3.046079,-1.397376 -2.894086,-2.310786 0.14001,-0.840215 0.980253,-1.843997 0.980253,-1.843997 0,0 0.186713,-2.718947 0.373426,-2.823884 z"
       id="path8141"
       style="stroke:#ffffff" />
    <path
       fill="none"
       stroke="#000000"
       stroke-width="0.746862"
       stroke-miterlimit="10"
       d="m 4.1335627,51.721646 c 0,0 4.4285227,1.773794 6.7841213,1.773794"
       id="path8143"
       style="stroke:#ffffff" />
    <path
       fill="none"
       stroke="#000000"
       stroke-width="0.746862"
       stroke-miterlimit="10"
       d="m 6.0418062,57.603182 c 0,0 2.1472203,1.026942 6.2549618,1.026942"
       id="path8145"
       style="stroke:#ffffff" />
    <path
       fill="none"
       stroke="#000000"
       stroke-width="0.746862"
       stroke-miterlimit="10"
       d="m 7.8992396,62.458156 c 0,0 1.8764872,0.653503 6.2643054,0.653503"
       id="path8147"
       style="stroke:#ffffff" />
    <path
       fill="none"
       stroke="#000000"
       stroke-width="0.746862"
       stroke-miterlimit="10"
       d="m 11.031202,67.406114 c 0,0 1.545629,0.653502 6.213523,0.653502"
       id="path8149"
       style="stroke:#ffffff" />
    <path
       fill="none"
       stroke="#000000"
       stroke-width="0.746862"
       stroke-miterlimit="10"
       d="m 76.666872,51.803436 c 0,0 -3.080813,1.692004 -6.441675,1.692004"
       id="path8151"
       style="stroke:#ffffff" />
    <path
       fill="none"
       stroke="#000000"
       stroke-width="0.746862"
       stroke-miterlimit="10"
       d="m 74.706351,57.965034 c 0,0 -4.988648,1.557584 -5.881522,0.66509"
       id="path8153"
       style="stroke:#ffffff" />
    <path
       fill="none"
       stroke="#000000"
       stroke-width="0.746862"
       stroke-miterlimit="10"
       d="m 72.932556,62.458156 c 0,0 -5.922226,1.266301 -6.535024,0.653503"
       id="path8155"
       style="stroke:#ffffff" />
    <path
       fill="none"
       stroke="#000000"
       stroke-width="0.746862"
       stroke-miterlimit="10"
       d="m 69.665044,67.732865 c 0,0 -4.667881,0.71175 -5.881536,0.326751"
       id="path8157"
       style="stroke:#ffffff" />
    <path
       id="line8159"
       style="fill:none;stroke:#ffffff;stroke-width:1.01943;stroke-miterlimit:10"
       d="m 43.478596,34.81233 v 7.904413" />
    <path
       id="line8161"
       style="fill:none;stroke:#ffffff;stroke-width:0.848322;stroke-miterlimit:10"
       d="m 37.254628,34.438904 0.373426,8.413022" />
    <path
       id="line8163"
       style="fill:#ffffff;stroke:#ffffff;stroke-width:0.746862;stroke-miterlimit:10"
       d="m 35.722817,13.441648 1.493718,15.933169" />
    <path
       id="line8165"
       style="fill:#ffffff;stroke:#ffffff;stroke-width:0.746862;stroke-miterlimit:10"
       d="m 31.241649,18.545324 2.364928,13.72358" />
    <path
       id="line8167"
       style="fill:#ffffff;stroke:#ffffff;stroke-width:0.746862;stroke-miterlimit:10"
       d="m 44.560428,13.441648 -1.24465,15.933169" />
    <path
       id="line8169"
       style="fill:#ffffff;stroke:#ffffff;stroke-width:0.746862;stroke-miterlimit:10"
       d="M 49.415021,17.798458 46.925736,31.864469" />
  </g>
  <g
     aria-label="SD NEGERI 1 BEDALISODO"
     transform="matrix(-0.98232706,-0.20588399,0.18717249,-1.0805296,148.77924,264.62696)"
     id="text608"
     style="font-size:10.5833px;line-height:1.25;font-family:'Open Sans';-inkscape-font-specification:'Open Sans';fill:#ffffff;stroke-width:0.264583">
    <path
       d="m 154.87029,147.61282 q -1.00282,-0.0722 -1.55206,-0.8439 -0.53944,-0.76037 -0.44367,-2.09042 0.0859,-1.19282 0.60745,-2.09962 l 1.48839,0.10718 q -0.271,0.52163 -0.51261,1.07721 -0.23181,0.56689 -0.27286,1.13692 -0.0426,0.59113 0.16163,0.84988 0.21399,0.27007 0.56234,0.29515 0.28501,0.0205 0.50001,-0.1656 0.21425,-0.17556 0.40671,-0.49064 0.20301,-0.31431 0.43398,-0.72211 0.14567,-0.25478 0.33661,-0.54874 0.2015,-0.2932 0.47536,-0.55997 0.28366,-0.25545 0.66605,-0.4083 0.38238,-0.15285 0.89962,-0.1156 1.01337,0.073 1.52343,0.79939 0.52062,0.72719 0.43548,1.90946 -0.0426,0.59113 -0.21779,1.10905 -0.176,0.52847 -0.47115,1.09081 l -1.20836,-0.60694 q 0.24837,-0.50204 0.39413,-0.90536 0.14576,-0.40332 0.17692,-0.83612 0.0327,-0.4539 -0.16095,-0.71189 -0.19364,-0.25799 -0.53143,-0.28232 -0.40112,-0.0289 -0.6592,0.3133 -0.25807,0.34218 -0.64679,1.02511 -0.31626,0.56081 -0.64071,0.94066 -0.32522,0.3904 -0.7423,0.58319 -0.41709,0.19279 -1.00823,0.15022 z"
       style="font-weight:bold;font-family:'Noto Sans';-inkscape-font-specification:'Noto Sans Bold';fill:#ffffff"
       id="path614" />
    <path
       d="m 154.84933,155.84206 q -1.86028,-0.45694 -2.54581,-1.74781 -0.67778,-1.27806 -0.21074,-3.17945 l 0.50995,-2.07612 7.33835,1.80251 -0.5655,2.30223 q -0.28274,1.15111 -0.90086,1.89291 -0.62065,0.75207 -1.53592,1.01766 -0.90752,0.27839 -2.08947,-0.0119 z m 0.35524,-1.62371 q 1.22306,0.30042 1.91961,-0.0952 0.70683,-0.39307 0.95676,-1.41057 l 0.20449,-0.8325 -4.77917,-1.17391 -0.1641,0.66806 q -0.55287,2.25084 1.86241,2.8441 z"
       style="font-weight:bold;font-family:'Noto Sans';-inkscape-font-specification:'Noto Sans Bold';fill:#ffffff"
       id="path616" />
    <path
       d="m 146.28408,164.83254 0.98021,-1.77995 6.59382,-0.1263 0.0204,-0.0371 q -0.48301,-0.24183 -0.96602,-0.48365 -0.48811,-0.23256 -0.97112,-0.47438 l -3.1149,-1.71537 0.68921,-1.25152 6.61916,3.64515 -0.9751,1.77067 -6.54236,0.14256 -0.0153,0.0278 q 0.46863,0.24599 0.9331,0.4776 0.46447,0.23162 0.92893,0.46324 l 3.13344,1.72557 -0.69431,1.26079 z"
       style="font-weight:bold;font-family:'Noto Sans';-inkscape-font-specification:'Noto Sans Bold';fill:#ffffff"
       id="path618" />
    <path
       d="m 142.44076,169.78375 2.68782,-3.41992 5.94117,4.66935 -2.68781,3.41992 -1.03181,-0.81093 1.70033,-2.16345 -1.3064,-1.02673 -1.5826,2.01367 -1.0318,-0.81092 1.5826,-2.01367 -1.53106,-1.20331 -1.70032,2.16345 z"
       style="font-weight:bold;font-family:'Noto Sans';-inkscape-font-specification:'Noto Sans Bold';fill:#ffffff"
       id="path620" />
    <path
       d="m 142.25452,176.02769 -2.16639,2.06815 -2.70393,-2.83238 q 0.28983,-0.55469 0.6764,-1.08468 0.37892,-0.52269 0.96836,-1.0854 1.22482,-1.16927 2.5701,-1.07817 1.34528,0.0911 2.66071,1.46901 0.81849,0.85737 1.08857,1.79933 0.26243,0.94926 -0.0441,1.9003 -0.30651,0.95104 -1.22512,1.82799 -0.43634,0.41655 -0.94507,0.72663 -0.50872,0.31007 -0.99936,0.48583 l -0.50151,-1.29166 q 0.37686,-0.11103 0.77876,-0.33376 0.4019,-0.22272 0.75403,-0.55889 0.50524,-0.48232 0.6611,-1.07006 0.14821,-0.58044 -0.047,-1.19878 -0.1956,-0.60338 -0.73639,-1.16986 -0.51155,-0.53585 -1.05163,-0.81038 -0.54007,-0.27452 -1.08048,-0.2122 -0.53309,0.07 -1.03833,0.55229 -0.24496,0.23386 -0.39145,0.4176 -0.15414,0.19104 -0.27036,0.36052 l 1.08888,1.1406 1.03344,-0.98657 z"
       style="font-weight:bold;font-family:'Noto Sans';-inkscape-font-specification:'Noto Sans Bold';fill:#ffffff"
       id="path622" />
    <path
       d="m 132.20317,178.68002 3.52154,-2.55323 4.43553,6.11771 -3.52154,2.55323 -0.77031,-1.06246 2.22774,-1.61518 -0.97533,-1.34521 -2.0735,1.50336 -0.77032,-1.06246 2.07351,-1.50336 -1.14305,-1.57656 -2.22774,1.61518 z"
       style="font-weight:bold;font-family:'Noto Sans';-inkscape-font-specification:'Noto Sans Bold';fill:#ffffff"
       id="path624" />
    <path
       d="m 132.6054,187.21315 q -1.35195,0.74817 -2.26248,0.61099 -0.91979,-0.13206 -1.47323,-1.13213 -0.2511,-0.45374 -0.26477,-0.89372 -0.0178,-0.4256 0.13601,-0.82521 0.14969,-0.38523 0.39179,-0.71275 l -3.53829,-1.80369 1.55566,-0.86091 2.9783,1.66605 0.75005,-0.41509 -1.40411,-2.53721 1.39824,-0.7738 3.65889,6.61157 z m -0.53358,-1.2046 0.42596,-0.23573 -0.98903,-1.78716 -0.45374,0.2511 q -0.69449,0.38434 -0.86269,0.77982 -0.17747,0.40061 0.0736,0.85434 0.26135,0.47226 0.69306,0.48736 0.42758,0.0295 1.11281,-0.34973 z"
       style="font-weight:bold;font-family:'Noto Sans';-inkscape-font-specification:'Noto Sans Bold';fill:#ffffff"
       id="path626" />
    <path
       d="m 122.08357,183.87758 3.16236,-1.35281 0.35798,0.83681 -0.68005,0.75135 1.92307,4.49543 1.01305,0.0271 0.35797,0.83681 -3.16237,1.35281 -0.35797,-0.83681 0.68004,-0.75135 -1.92307,-4.49543 -1.01304,-0.0271 z"
       style="font-weight:bold;font-family:'Noto Sans';-inkscape-font-specification:'Noto Sans Bold';fill:#ffffff"
       id="path628" />
    <path
       d="m 114.97172,186.12713 1.5418,-0.42036 1.14971,4.21699 q 0.0724,0.26547 0.17909,0.6971 0.0965,0.43442 0.17537,0.76394 0.0344,-0.0752 0.16339,-0.28588 0.12161,-0.1977 0.23116,-0.3592 l 0.65354,-0.90217 0.9987,0.72595 -1.83901,2.50882 -1.26611,0.34519 z"
       style="font-weight:bold;font-family:'Noto Sans';-inkscape-font-specification:'Noto Sans Bold';fill:#ffffff"
       id="path630" />
    <path
       d="m 108.16703,194.98522 q -1.50471,0.16213 -2.31819,-0.17601 -0.81349,-0.33813 -0.92799,-1.40089 -0.0692,-0.64187 0.18837,-1.11669 0.24701,-0.47368 0.79449,-0.62847 l -0.006,-0.0526 q -0.38674,-0.0328 -0.7123,-0.18937 -0.32555,-0.15652 -0.54298,-0.49501 -0.21743,-0.33849 -0.28092,-0.92774 -0.10997,-1.02068 0.56424,-1.67877 0.67421,-0.65809 1.95794,-0.79641 l 2.80948,-0.30271 0.8095,7.51299 z m -0.49973,-2.95856 q -0.69448,0.0748 -0.93373,0.32414 -0.24978,0.25045 -0.20443,0.67134 0.0465,0.43142 0.38257,0.58681 0.33607,0.15539 1.02003,0.0817 l 0.84179,-0.0907 -0.18026,-1.67306 z m 0.78992,-1.36246 -0.21088,-1.95717 -1.04172,0.11224 q -0.71552,0.0771 -0.97015,0.38129 -0.25349,0.31472 -0.20361,0.7777 0.0453,0.4209 0.36719,0.64169 0.31245,0.23245 1.07006,0.15082 z"
       style="font-weight:bold;font-family:'Noto Sans';-inkscape-font-specification:'Noto Sans Bold';fill:#ffffff"
       id="path632" />
    <path
       d="m 98.258856,187.84464 4.349734,0.002 -0.003,7.55648 -4.349734,-0.002 5.61e-4,-1.31233 2.751653,0.001 7.2e-4,-1.66157 -2.561163,-0.001 5.61e-4,-1.31233 2.561162,0.001 8.3e-4,-1.94733 -2.751659,-0.001 z"
       style="font-weight:bold;font-family:'Noto Sans';-inkscape-font-specification:'Noto Sans Bold';fill:#ffffff"
       id="path634" />
    <path
       d="m 90.019877,190.91141 q 0.214996,-1.90348 1.407469,-2.74864 1.180768,-0.83584 3.126307,-0.61609 l 2.124319,0.23994 -0.848108,7.50873 -2.355681,-0.26607 q -1.17784,-0.13304 -1.992674,-0.6511 -0.82535,-0.51924 -1.205939,-1.39298 -0.392293,-0.8644 -0.255693,-2.07379 z m 1.65583,0.14442 q -0.141351,1.25146 0.340173,1.89163 0.480336,0.65068 1.521463,0.76828 l 0.85183,0.0962 0.55234,-4.89014 -0.683568,-0.0772 q -2.303098,-0.26013 -2.582238,2.21123 z"
       style="font-weight:bold;font-family:'Noto Sans';-inkscape-font-specification:'Noto Sans Bold';fill:#ffffff"
       id="path636" />
    <path
       d="m 84.625216,185.70883 0.108506,1.87831 2.67335,0.65178 0.960835,-1.6176 1.675985,0.40862 -4.388505,6.74055 -1.902192,-0.46377 -0.803964,-8.00651 z m 0.278825,5.11158 q 0.0088,0.18733 0.02587,0.47472 0.01708,0.28739 0.03165,0.58506 0.01457,0.29767 0.01585,0.51585 0.101548,-0.19311 0.269292,-0.47901 0.154956,-0.27813 0.304898,-0.53569 0.137153,-0.24979 0.205856,-0.35286 l 0.940526,-1.57899 -1.912474,-0.46627 z"
       style="font-weight:bold;font-family:'Noto Sans';-inkscape-font-specification:'Noto Sans Bold';fill:#ffffff"
       id="path638" />
    <path
       d="m 82.059529,184.93288 -2.626843,7.0852 -1.49841,-0.55554 2.166962,-5.84479 -2.877742,-1.06693 0.459882,-1.2404 z"
       style="font-weight:bold;font-family:'Noto Sans';-inkscape-font-specification:'Noto Sans Bold';fill:#ffffff"
       id="path640" />
    <path
       d="m 73.949092,181.51852 3.103898,1.48205 -0.392174,0.82134 -1.013296,-0.0147 -2.106794,4.41231 0.648483,0.77875 -0.392174,0.82134 -3.103897,-1.48205 0.392173,-0.82134 1.013296,0.0147 2.106795,-4.41231 -0.648483,-0.77875 z"
       style="font-weight:bold;font-family:'Noto Sans';-inkscape-font-specification:'Noto Sans Bold';fill:#ffffff"
       id="path642" />
    <path
       d="m 67.902339,180.44016 q 0.514464,-0.86382 1.450548,-1.00845 0.921576,-0.14095 2.067272,0.5414 1.027489,0.61194 1.603887,1.4849 l -0.763574,1.28209 q -0.344595,-0.47623 -0.732714,-0.94142 -0.402628,-0.46152 -0.893641,-0.75396 -0.509198,-0.30326 -0.832057,-0.23686 -0.337367,0.0701 -0.516075,0.37013 -0.146217,0.24551 -0.07635,0.52116 0.06078,0.27025 0.256009,0.58361 0.189815,0.32245 0.450635,0.71183 0.162336,0.2445 0.339381,0.54704 0.17163,0.31162 0.287166,0.67607 0.101028,0.36812 0.06607,0.77843 -0.03496,0.41031 -0.300317,0.85586 -0.51988,0.87291 -1.397931,1.00283 -0.883466,0.13901 -1.901863,-0.46752 -0.509198,-0.30326 -0.893439,-0.69224 -0.393333,-0.39439 -0.763469,-0.91047 l 1.084568,-0.8076 q 0.33724,0.44721 0.632291,0.75844 0.29505,0.31122 0.667856,0.53325 0.390992,0.23286 0.708435,0.17556 0.317443,-0.0573 0.490737,-0.34827 0.205786,-0.34553 0.01577,-0.72969 -0.190017,-0.38417 -0.625943,-1.03797 -0.359304,-0.53427 -0.5532,-0.99465 -0.202988,-0.4658 -0.188152,-0.92505 0.01484,-0.45925 0.3181,-0.96845 z"
       style="font-weight:bold;font-family:'Noto Sans';-inkscape-font-specification:'Noto Sans Bold';fill:#ffffff"
       id="path644" />
    <path
       d="m 60.080363,176.58109 q 0.733115,-0.91792 1.587273,-1.35992 0.839283,-0.44033 1.76331,-0.32538 0.924028,0.11495 1.891561,0.88769 0.959265,0.76614 1.283935,1.64849 0.3164,0.87575 0.07419,1.80649 -0.250483,0.92414 -0.983598,1.84206 -0.733115,0.91791 -1.572398,1.35825 -0.847553,0.43372 -1.764976,0.3105 -0.932297,-0.12155 -1.899831,-0.89429 -0.959264,-0.76614 -1.275664,-1.64189 -0.323005,-0.86747 -0.07252,-1.79161 0.235609,-0.92247 0.968724,-1.84039 z m 4.308419,3.44102 q 0.73972,-0.92619 0.813432,-1.74771 0.06711,-0.81325 -0.718496,-1.44069 -0.802143,-0.64065 -1.57216,-0.38879 -0.776622,0.26012 -1.516342,1.18631 -0.746324,0.93445 -0.821701,1.7411 -0.07538,0.80664 0.718496,1.44069 0.793874,0.63404 1.57216,0.38879 0.778287,-0.24525 1.524611,-1.1797 z"
       style="font-weight:bold;font-family:'Noto Sans';-inkscape-font-specification:'Noto Sans Bold';fill:#ffffff"
       id="path646" />
    <path
       d="m 54.272087,170.41853 q 1.425334,-1.27979 2.878091,-1.11919 1.437811,0.1598 2.745882,1.61663 l 1.428271,1.59071 -5.622592,5.04844 -1.583825,-1.76395 q -0.791913,-0.88197 -1.056715,-1.81053 -0.271873,-0.93643 0.02418,-1.84231 0.281108,-0.90668 1.186708,-1.7198 z m 1.141591,1.20805 q -0.937099,0.84141 -1.002538,1.63979 -0.07331,0.80544 0.626681,1.58504 l 0.572723,0.63786 3.661771,-3.28785 -0.459592,-0.51186 q -1.548472,-1.72458 -3.399045,-0.063 z"
       style="font-weight:bold;font-family:'Noto Sans';-inkscape-font-specification:'Noto Sans Bold';fill:#ffffff"
       id="path648" />
    <path
       d="m 49.352582,162.74612 q 0.998992,-0.61809 1.952018,-0.74728 0.938458,-0.13261 1.770088,0.28623 0.83163,0.41885 1.483139,1.47184 0.64594,1.04399 0.655146,1.98413 0.0036,0.93114 -0.537324,1.72632 -0.546529,0.78618 -1.545521,1.40428 -0.998991,0.6181 -1.937449,0.75071 -0.944026,0.12362 -1.766656,-0.30079 -0.837199,-0.42785 -1.488707,-1.48084 -0.645941,-1.04399 -0.649578,-1.97513 -0.01264,-0.92558 0.533892,-1.71176 0.531961,-0.78961 1.530952,-1.40771 z m 2.901163,4.68896 q 1.007991,-0.62366 1.353543,-1.37261 0.336551,-0.74338 -0.192451,-1.59837 -0.54014,-0.87299 -1.35001,-0.89461 -0.81887,-0.016 -1.826861,0.60762 -1.016991,0.62924 -1.359111,1.36361 -0.34212,0.73438 0.192451,1.59837 0.534571,0.864 1.350009,0.89461 0.815439,0.0306 1.83243,-0.59862 z"
       style="font-weight:bold;font-family:'Noto Sans';-inkscape-font-specification:'Noto Sans Bold';fill:#ffffff"
       id="path650" />
  </g>
  <path
     style="fill:#ffba3a;fill-opacity:1;stroke:none;stroke-width:0.264583"
     id="path757"
     d="m 81.174223,27.763038 -5.353232,-2.79212 -5.334907,2.826971 1.001216,-5.954039 -4.337186,-4.200213 5.972021,-0.887681 2.65438,-5.422851 2.68969,5.405426 5.977687,0.848679 -4.309702,4.228422 z" />
  <g
     id="g19115"
     transform="translate(-26.327698,-55.662187)">
    <path
       id="path909"
       style="fill:#ffffff;stroke:#000000;stroke-width:0.606792;stroke-dasharray:none"
       d="m 102.05621,140.15255 a 5.6240188,6.6557346 0 0 0 -5.624096,6.65591 5.6240188,6.6557346 0 0 0 5.624096,6.65557 5.6240188,6.6557346 0 0 0 5.62377,-6.65557 5.6240188,6.6557346 0 0 0 -5.62377,-6.65591 z m -10.576169,5.12602 c -0.377368,-0.005 -0.756779,0.0851 -1.104421,0.28056 -1.112454,0.62553 -1.468877,2.0874 -0.799435,3.27795 l 4.57513,8.13661 c 0.164368,0.29231 0.375062,0.53986 0.615585,0.73837 l 0.815938,10.79303 c 0.102982,1.36196 1.099457,2.46531 2.465309,2.46531 h 8.265003 c 1.36586,0 2.36233,-1.10335 2.46531,-2.46531 l 0.82419,-10.89898 c 0.19067,-0.17855 0.35908,-0.3899 0.49544,-0.63242 l 4.57513,-8.13661 c 0.66944,-1.19055 0.31303,-2.65242 -0.79943,-3.27795 -1.11246,-0.62553 -2.54711,-0.17095 -3.21656,1.0196 l -3.40205,6.05055 h -1.13182 c -1.0569,1.27316 -2.5016,1.99064 -4.00972,1.99132 -1.50822,-5.8e-4 -2.953057,-0.71806 -4.010041,-1.99132 h -1.069433 c -0.01316,0 -0.02615,6.4e-4 -0.03928,0.001 l -3.402714,-6.05121 c -0.460242,-0.81851 -1.28192,-1.28945 -2.112132,-1.30049 z" />
    <path
       id="rect13749"
       style="fill:#aa0000;stroke-width:0.275254"
       d="m 101.10456,155.66313 h 1.73434 c 0.0182,0 0.0315,0.0204 0.0328,0.0455 l 0.86584,16.1026 c 0.001,0.0252 -0.0146,0.0455 -0.0328,0.0455 0,0 -1.0991,1.54551 -1.65615,1.54551 -0.55706,0 -1.68618,-1.54551 -1.68618,-1.54551 -0.0182,0 -0.034,-0.0204 -0.0328,-0.0455 l 0.74215,-16.1026 c 0.001,-0.0252 0.0147,-0.0455 0.0328,-0.0455 z" />
    <g
       id="g1713"
       transform="matrix(0.63872859,0,0,0.63872859,36.759825,66.703755)"
       style="stroke:#000000;stroke-width:0.6;stroke-dasharray:none">
      <g
         id="g1690"
         style="stroke:#000000;stroke-width:0.6;stroke-dasharray:none">
        <path
           id="rect1674"
           style="fill:#ffffff;stroke:#000000;stroke-width:0.6;stroke-dasharray:none"
           d="m 102.52462,153.79054 c 8.94124,-3.71728 11.54052,0.24985 18.79614,0 0.0778,-0.003 0.11049,0.0527 0.14067,0.10316 l 8.99982,15.04321 c 0.0301,0.0505 -0.0628,0.10379 -0.14067,0.10316 -9.27686,-0.076 -21.48795,-4.87582 -27.79596,0 -0.0588,0.0455 -0.14067,-0.046 -0.14067,-0.10316 V 153.8937 c 0,-0.0571 0.0701,-0.0738 0.14067,-0.10316 z" />
        <path
           id="path1677"
           style="fill:#ffffff;stroke:#000000;stroke-width:0.6;stroke-dasharray:none"
           d="m 102.14722,153.79054 c -8.941238,-3.71729 -11.540518,0.24984 -18.796138,0 -0.0778,-0.003 -0.11049,0.0527 -0.14067,0.10316 l -8.99982,15.04321 c -0.0301,0.0505 0.0628,0.10379 0.14067,0.10316 9.27686,-0.076 21.48795,-4.87582 27.795958,0 0.0588,0.0455 0.14067,-0.046 0.14067,-0.10316 V 153.8937 c 0,-0.0571 -0.0701,-0.0738 -0.14067,-0.10316 z" />
      </g>
      <g
         id="g1686"
         transform="translate(-0.255331,-0.52916667)"
         style="stroke:#000000;stroke-width:0.6;stroke-dasharray:none">
        <path
           id="rect1679"
           style="fill:#ffffff;stroke:#000000;stroke-width:0.6;stroke-dasharray:none"
           d="m 102.8176,169.88988 c 8.15816,-4.23029 16.1794,0.3632 26.93716,0 0.0778,-0.003 0.14049,0.0626 0.14049,0.14048 -7.76248,0.38724 -21.10777,-3.38511 -27.07765,0.74322 -0.0778,0 -0.14048,-0.0627 -0.14048,-0.14049 v -0.60273 c 0,-0.0778 0.0713,-0.10463 0.14048,-0.14048 z" />
        <path
           id="path1682"
           style="fill:#ffffff;stroke:#000000;stroke-width:0.6;stroke-dasharray:none"
           d="m 102.3649,169.88989 c -8.158156,-4.23029 -16.179396,0.3632 -26.937156,0 -0.0778,-0.003 -0.14049,0.0626 -0.14049,0.14048 7.76248,0.38724 21.10777,-3.38511 27.077646,0.74322 0.0778,0 0.14048,-0.0627 0.14048,-0.14049 v -0.60273 c 0,-0.0778 -0.0713,-0.10463 -0.14048,-0.14048 z" />
      </g>
      <g
         id="g1702"
         transform="translate(-0.255331,0.52916663)"
         style="stroke:#000000;stroke-width:0.6;stroke-dasharray:none">
        <path
           id="path1698"
           style="fill:#ffffff;stroke:#000000;stroke-width:0.6;stroke-dasharray:none"
           d="m 102.8176,169.88988 c 8.15816,-4.23029 16.1794,0.3632 26.93716,0 0.0778,-0.003 0.14049,0.0626 0.14049,0.14048 -7.76248,0.38724 -21.10777,-3.38511 -27.07765,0.74322 -0.0778,0 -0.14048,-0.0627 -0.14048,-0.14049 v -0.60273 c 0,-0.0778 0.0713,-0.10463 0.14048,-0.14048 z" />
        <path
           id="path1700"
           style="fill:#ffffff;stroke:#000000;stroke-width:0.6;stroke-dasharray:none"
           d="m 102.3649,169.88989 c -8.158156,-4.23029 -16.179396,0.3632 -26.937156,0 -0.0778,-0.003 -0.14049,0.0626 -0.14049,0.14048 7.76248,0.38724 21.10777,-3.38511 27.077646,0.74322 0.0778,0 0.14048,-0.0627 0.14048,-0.14049 v -0.60273 c 0,-0.0778 -0.0713,-0.10463 -0.14048,-0.14048 z" />
      </g>
    </g>
    <g
       id="g13223"
       transform="matrix(2.4778437,0,0,2.09011,-245.27846,-302.31335)">
      <path
         d="m 140.02921,223.91115 c -0.77117,0.73815 -1.13968,1.61872 -0.78751,2.75601 -0.98065,-0.52952 -1.89289,-0.3302 -2.80451,0.22518 0.56716,0.91281 1.19602,1.37452 2.33821,1.33268 -0.94685,0.74094 -1.02436,1.78894 -0.753,2.9445 1.03791,-0.20627 1.79641,-0.94908 2.10054,-2.04943 0.38665,1.06116 1.20079,1.8305 2.28071,2.04449 0.18264,-1.06154 -0.0574,-2.09691 -0.99109,-2.8376 1.02471,0 1.67915,-0.44874 2.2128,-1.30941 -0.87496,-0.57347 -1.84672,-0.7766 -2.81658,-0.28074 0.32868,-1.09287 0.0166,-2.00395 -0.77957,-2.82568 z"
         style="fill:#ffffff;fill-rule:evenodd;stroke-width:0.352778"
         id="path12338" />
      <path
         d="m 140.0291,223.91126 c -0.77113,0.73815 -1.13968,1.61872 -0.7875,2.756 -0.98062,-0.52952 -1.89287,-0.3302 -2.80451,0.22518 0.56719,0.91281 1.19605,1.37453 2.33821,1.33269 -0.94682,0.74094 -1.02433,1.78894 -0.75297,2.9445 1.03791,-0.20627 1.79641,-0.94912 2.10054,-2.0494 0.38661,1.06112 1.20079,1.83046 2.28068,2.04446 0.18263,-1.06155 -0.0573,-2.09691 -0.9911,-2.83757 1.02472,0 1.67912,-0.44877 2.2128,-1.30944 -0.87492,-0.57348 -1.84672,-0.77661 -2.81654,-0.28074 0.32865,-1.09284 0.0166,-2.00392 -0.77961,-2.82568 z"
         style="fill:none;stroke:#1b1918;stroke-width:0.185596;stroke-linecap:butt;stroke-linejoin:miter;stroke-dasharray:none"
         id="path12340" />
      <path
         d="m 140.01097,226.75242 c -0.16743,0.16027 -0.2474,0.35144 -0.17099,0.59835 -0.21287,-0.11497 -0.41095,-0.0717 -0.60882,0.0489 0.12312,0.19815 0.25964,0.29841 0.50761,0.28931 -0.20556,0.16087 -0.22239,0.38837 -0.16348,0.63927 0.22532,-0.0448 0.39,-0.20606 0.45604,-0.44496 0.0839,0.2304 0.26066,0.3974 0.49512,0.44386 0.0396,-0.23047 -0.0125,-0.45522 -0.21516,-0.61605 0.22243,0 0.36453,-0.0974 0.48038,-0.28427 -0.18994,-0.1245 -0.4009,-0.16859 -0.61147,-0.0609 0.0714,-0.23728 0.004,-0.43509 -0.16923,-0.61349 z"
         style="fill:#e30016;fill-rule:evenodd;stroke-width:0.352778"
         id="path12342" />
      <path
         d="m 140.01055,226.75302 c -0.16743,0.1602 -0.24744,0.35141 -0.17099,0.59832 -0.21287,-0.11497 -0.41092,-0.0717 -0.60886,0.0489 0.12315,0.19819 0.25968,0.29841 0.50765,0.28934 -0.20557,0.16087 -0.2224,0.38834 -0.16348,0.63924 0.22532,-0.0448 0.38996,-0.20606 0.45603,-0.44493 0.0839,0.23037 0.26067,0.39737 0.49513,0.44383 0.0396,-0.23043 -0.0125,-0.45522 -0.21516,-0.61602 0.22242,0 0.36452,-0.0974 0.48038,-0.28427 -0.18994,-0.12449 -0.40094,-0.16859 -0.61147,-0.0609 0.0713,-0.23728 0.004,-0.43508 -0.16923,-0.61345 z"
         style="fill:none;stroke:#1b1918;stroke-width:0.185596;stroke-linecap:butt;stroke-linejoin:miter;stroke-dasharray:none"
         id="path12344" />
      <path
         d="m 140.10305,229.24268 v 5.2196"
         style="fill:none;stroke:#1b1918;stroke-width:0.185632;stroke-linecap:butt;stroke-linejoin:miter;stroke-dasharray:none"
         id="path12524" />
    </g>
  </g>
  <g
     id="g1323"
     transform="translate(-25.440471,-56.720521)">
    <g
       id="g21620"
       transform="matrix(0.69273101,0,0,0.69273101,30.176096,17.36358)">
      <g
         id="g19095"
         transform="matrix(-1.195679,0,0,0.95526534,220.52082,67.351706)">
        <path
           id="path19091"
           style="fill:#ffba3a;stroke:#000000;stroke-width:0.132967"
           d="m 62.186182,170.45096 -0.09869,12.39613 c -5.87e-4,0.0738 -0.104356,0.0995 -0.173487,0.0736 -7.606992,0.65473 -16.712561,-4.62746 -21.621126,-6.51545 l 4.500428,-3.34166 -5.453915,-15.85645 c 3.701343,5.12221 16.795624,11.73683 22.846792,13.24383 z" />
        <rect
           style="fill:#d99e31;fill-opacity:1;stroke:#000000;stroke-width:0.0975217;stroke-dasharray:none"
           id="rect19093"
           width="12.361732"
           height="14.159467"
           x="49.949841"
           y="170.30695"
           ry="0.13358448" />
      </g>
      <g
         id="g21611"
         transform="matrix(1.195679,0,0,0.95526534,-15.357838,67.483634)">
        <path
           id="path21607"
           style="fill:#ffba3a;stroke:#000000;stroke-width:0.132967"
           d="m 62.186182,170.45096 -0.09869,12.39613 c -5.87e-4,0.0738 -0.104356,0.0995 -0.173487,0.0736 -7.606992,0.65473 -16.712561,-4.62746 -21.621126,-6.51545 l 4.500428,-3.34166 -5.453915,-15.85645 c 3.701343,5.12221 16.795624,11.73683 22.846792,13.24383 z" />
        <rect
           style="fill:#d99e31;fill-opacity:1;stroke:#000000;stroke-width:0.0975217;stroke-dasharray:none"
           id="rect21609"
           width="12.361732"
           height="14.159467"
           x="49.949841"
           y="170.30695"
           ry="0.13358448" />
      </g>
      <path
         id="rect21482"
         style="fill:#ffba3a;stroke:#333333;stroke-width:0.280001;stroke-dasharray:none;stroke-dashoffset:0.7"
         d="m 44.103251,230.13014 v 17.45061 a 109.15328,54.660587 0 0 0 58.528729,8.55349 109.15328,54.660587 0 0 0 58.52873,-8.52455 v -17.47955 a 109.15328,54.660587 0 0 1 -58.52873,8.54211 109.15328,54.660587 0 0 1 -58.528729,-8.54211 z" />
    </g>
    <g
       aria-label="DALISODO - WAGIR"
       transform="translate(0,-1.0583333)"
       id="text26829"
       style="font-size:7.76111px;line-height:1.25;font-family:'Open Sans';-inkscape-font-specification:'Open Sans';text-align:center;letter-spacing:0.132292px;text-anchor:middle;stroke-width:0.264583">
      <path
         d="m 65.769436,183.51612 -0.867254,3.34162 0.454842,0.11804 q 0.777634,0.20182 1.299841,-0.12072 0.522207,-0.32254 0.734499,-1.14053 0.211339,-0.81431 -0.08906,-1.34643 -0.296728,-0.53117 -1.07803,-0.73394 z m -0.995799,-1.39775 1.342519,0.34842 q 1.122433,0.29131 1.622331,0.61289 0.504517,0.31886 0.786572,0.84622 0.252318,0.46092 0.295389,0.98889 0.04307,0.52798 -0.11591,1.14055 -0.160885,0.61991 -0.45623,1.06397 -0.294394,0.4404 -0.739011,0.72044 -0.506583,0.32268 -1.107111,0.35867 -0.599575,0.0323 -1.707337,-0.25518 l -1.342518,-0.34843 z"
         style="font-weight:bold;font-stretch:semi-condensed;font-family:'DejaVu Sans';-inkscape-font-specification:'DejaVu Sans Bold Semi-Condensed'"
         id="path1271" />
      <path
         d="m 72.340728,188.69063 -2.008489,-0.42982 -0.534395,0.93975 -1.289583,-0.27597 3.029432,-5.13768 1.530454,0.32752 0.661444,5.92754 -1.293289,-0.27677 z m -1.47013,-1.3881 1.363697,0.29184 -0.207083,-2.34631 z"
         style="font-weight:bold;font-stretch:semi-condensed;font-family:'DejaVu Sans';-inkscape-font-specification:'DejaVu Sans Bold Semi-Condensed'"
         id="path1273" />
      <path
         d="m 75.492546,184.60052 1.295517,0.22549 -0.781066,4.48764 2.269954,0.39508 -0.189093,1.08644 -3.565471,-0.62056 z"
         style="font-weight:bold;font-stretch:semi-condensed;font-family:'DejaVu Sans';-inkscape-font-specification:'DejaVu Sans Bold Semi-Condensed'"
         id="path1275" />
      <path
         d="m 79.855065,185.32888 1.301314,0.18918 -0.813963,5.59903 -1.301314,-0.18918 z"
         style="font-weight:bold;font-stretch:semi-condensed;font-family:'DejaVu Sans';-inkscape-font-specification:'DejaVu Sans Bold Semi-Condensed'"
         id="path1277" />
      <path
         d="m 85.886102,186.27707 -0.136436,1.18972 q -0.390395,-0.25457 -0.777389,-0.40575 -0.383228,-0.15076 -0.737131,-0.19134 -0.466851,-0.0535 -0.709154,0.0636 -0.238537,0.1176 -0.273078,0.41879 -0.02591,0.2259 0.110012,0.37117 0.136349,0.14152 0.525069,0.27764 l 0.539196,0.18771 q 0.825521,0.28539 1.135385,0.71 0.309863,0.42461 0.228693,1.13242 -0.106645,0.92993 -0.655859,1.3285 -0.545016,0.39523 -1.565312,0.27822 -0.481911,-0.0553 -0.955929,-0.21261 -0.470253,-0.15692 -0.933046,-0.41216 l 0.140322,-1.2236 q 0.452862,0.34183 0.887815,0.54047 0.435384,0.19488 0.857056,0.24324 0.425437,0.0488 0.669467,-0.0834 0.247795,-0.13179 0.281472,-0.42546 0.03022,-0.26354 -0.107732,-0.42431 -0.137955,-0.16077 -0.588089,-0.32683 L 83.331182,189.131 q -0.736026,-0.2675 -1.044595,-0.70341 -0.304803,-0.43547 -0.22795,-1.10563 0.09628,-0.83957 0.637534,-1.23524 0.541252,-0.39566 1.452365,-0.29117 0.417907,0.0479 0.8502,0.16997 0.432725,0.11829 0.887366,0.31156 z"
         style="font-weight:bold;font-stretch:semi-condensed;font-family:'DejaVu Sans';-inkscape-font-specification:'DejaVu Sans Bold Semi-Condensed'"
         id="path1279" />
      <path
         d="m 89.528298,187.36003 q -0.59723,-0.0427 -0.96503,0.42485 -0.36402,0.46785 -0.427858,1.35992 -0.06357,0.88828 0.230121,1.40321 0.297469,0.5152 0.894699,0.55794 0.60101,0.043 0.96503,-0.42485 0.3678,-0.46759 0.431368,-1.35588 0.06384,-0.89206 -0.233631,-1.40726 -0.293689,-0.51492 -0.894699,-0.55793 z m 0.07547,-1.05461 q 1.2247,0.0876 1.860705,0.91582 0.639785,0.82844 0.541593,2.20055 -0.09792,1.36834 -0.849154,2.09724 -0.747452,0.72916 -1.972152,0.64152 -1.22092,-0.0874 -1.860705,-0.91581 -0.639785,-0.82844 -0.541863,-2.19678 0.09819,-1.37212 0.849424,-2.10101 0.751232,-0.7289 1.972152,-0.64153 z"
         style="font-weight:bold;font-stretch:semi-condensed;font-family:'DejaVu Sans';-inkscape-font-specification:'DejaVu Sans Bold Semi-Condensed'"
         id="path1281" />
      <path
         d="m 94.360456,187.76517 -0.09107,3.45113 0.469748,0.0124 q 0.803116,0.0212 1.2391,-0.41084 0.435984,-0.43203 0.458277,-1.27682 0.02219,-0.841 -0.390499,-1.29164 -0.408904,-0.45053 -1.215809,-0.47183 z m -1.285445,-1.13708 1.386512,0.0366 q 1.159216,0.0306 1.718772,0.23111 0.563445,0.19683 0.957195,0.64697 0.349791,0.39211 0.510856,0.89676 0.161066,0.50466 0.144371,1.1373 -0.01689,0.64022 -0.204451,1.13946 -0.187456,0.49546 -0.55744,0.86858 -0.420731,0.42864 -0.997661,0.59917 -0.576829,0.16675 -1.720891,0.13656 l -1.386513,-0.0366 z"
         style="font-weight:bold;font-stretch:semi-condensed;font-family:'DejaVu Sans';-inkscape-font-specification:'DejaVu Sans Bold Semi-Condensed'"
         id="path1283" />
      <path
         d="m 101.09853,187.66671 q -0.59867,0.0106 -0.9234,0.50903 -0.320952,0.49839 -0.305166,1.39259 0.01572,0.89042 0.354056,1.37717 0.34213,0.48669 0.9408,0.47612 0.60245,-0.0106 0.9234,-0.50902 0.32474,-0.49846 0.30902,-1.38888 -0.0158,-0.89421 -0.35792,-1.38089 -0.33834,-0.48676 -0.94079,-0.47612 z m -0.0187,-1.05714 q 1.22764,-0.0217 1.93481,0.74663 0.71095,0.76823 0.73523,2.14364 0.0242,1.37162 -0.65918,2.16447 -0.67961,0.79277 -1.90725,0.81445 -1.223854,0.0216 -1.934812,-0.74663 -0.710957,-0.76823 -0.735171,-2.13985 -0.02428,-1.37541 0.659119,-2.16826 0.683399,-0.79284 1.907254,-0.81445 z"
         style="font-weight:bold;font-stretch:semi-condensed;font-family:'DejaVu Sans';-inkscape-font-specification:'DejaVu Sans Bold Semi-Condensed'"
         id="path1285" />
      <path
         d="m 107.02703,189.35652 2.13617,-0.14567 0.075,1.10021 -2.13617,0.14568 z"
         style="font-weight:bold;font-stretch:semi-condensed;font-family:'DejaVu Sans';-inkscape-font-specification:'DejaVu Sans Bold Semi-Condensed'"
         id="path1287" />
      <path
         d="m 111.94506,186.12383 1.24902,-0.15133 1.36734,3.97613 0.37451,-4.18716 1.25654,-0.15223 1.35981,3.97704 0.37827,-4.18762 1.2415,-0.15041 -0.51209,5.76129 -1.50484,0.18232 -1.43527,-4.15876 -0.38935,4.37982 -1.50483,0.18232 z"
         style="font-weight:bold;font-stretch:semi-condensed;font-family:'DejaVu Sans';-inkscape-font-specification:'DejaVu Sans Bold Semi-Condensed'"
         id="path1289" />
      <path
         d="m 123.36761,189.22183 -2.02715,0.33081 -0.15564,1.06981 -1.30156,0.2124 0.95131,-5.88797 1.54468,-0.25208 2.77385,5.28006 -1.30531,0.21301 z m -1.87457,-0.75769 1.37636,-0.22462 -1.04699,-2.10994 z"
         style="font-weight:bold;font-stretch:semi-condensed;font-family:'DejaVu Sans';-inkscape-font-specification:'DejaVu Sans Bold Semi-Condensed'"
         id="path1291" />
      <path
         d="m 130.35099,188.52074 q -0.4317,0.35597 -0.92634,0.5892 -0.49093,0.23249 -1.0411,0.34151 -1.24902,0.24749 -2.13082,-0.38134 -0.88255,-0.63255 -1.14551,-1.95964 -0.26591,-1.34196 0.32137,-2.25802 0.59099,-0.91681 1.88462,-1.17314 0.49812,-0.0987 0.97598,-0.0852 0.47786,0.0135 0.92356,0.13765 l 0.2276,1.14866 q -0.47235,-0.1807 -0.91076,-0.22904 -0.4384,-0.0483 -0.85474,0.0341 -0.76949,0.15247 -1.09081,0.7145 -0.32206,0.55832 -0.14601,1.44676 0.17457,0.88101 0.67106,1.28099 0.49649,0.39999 1.23624,0.25341 0.20073,-0.0398 0.36657,-0.0997 0.16883,-0.0644 0.29086,-0.15035 l -0.21361,-1.07803 -0.78435,0.15542 -0.19004,-0.95907 2.00736,-0.39776 z"
         style="font-weight:bold;font-stretch:semi-condensed;font-family:'DejaVu Sans';-inkscape-font-specification:'DejaVu Sans Bold Semi-Condensed'"
         id="path1293" />
      <path
         d="m 130.45144,183.12603 1.28335,-0.28674 1.23371,5.52174 -1.28335,0.28673 z"
         style="font-weight:bold;font-stretch:semi-condensed;font-family:'DejaVu Sans';-inkscape-font-specification:'DejaVu Sans Bold Semi-Condensed'"
         id="path1295" />
      <path
         d="m 135.40764,184.54716 q 0.39738,-0.098 0.52948,-0.3062 0.13579,-0.20912 0.0423,-0.5881 -0.0925,-0.37529 -0.30907,-0.49364 -0.21286,-0.11925 -0.61023,-0.0213 l -0.53719,0.13246 0.34748,1.40921 z m -0.29586,1.11118 0.51261,2.07886 -1.27675,0.31482 -1.35455,-5.49334 1.9464,-0.47994 q 0.97872,-0.24133 1.52111,0.0113 0.54606,0.25176 0.74022,1.03916 0.13427,0.54455 -0.015,0.95215 -0.14929,0.40761 -0.58679,0.69113 0.27757,0.002 0.54168,0.18649 0.26689,0.18009 0.59365,0.60301 l 1.07641,1.3895 -1.3577,0.33478 -0.93634,-1.21717 q -0.28558,-0.36673 -0.51043,-0.47131 -0.22485,-0.10459 -0.53392,-0.0284 z"
         style="font-weight:bold;font-stretch:semi-condensed;font-family:'DejaVu Sans';-inkscape-font-specification:'DejaVu Sans Bold Semi-Condensed'"
         id="path1297" />
    </g>
  </g>
</svg>
